# File created by Blade
# Date/Time:  Wed Apr 08 17:39:41 2015
#---------------------------------------------------------
:version 1.10
:name HOM
:units
  mass 1.0
  length 1.000000
  angle deg
:documentation
     Acclaim Skeleton File
:root
   axis xyz
   order TX TY TZ RX RY RZ
   position 0.000000 0.000000 0.000000
   orientation 0 0 0
:bonedata
   begin
      id 1
      name Spine_dum
      direction 0.000000 1.000000 0.000000
      length 5.893853
      axis 0.0 0.0 0.0 xyz
   end
   begin
      id 2
      name LeftUpLeg_dum
      direction 1.000000 0.000000 0.000000
      length 3.697939
      axis 0.0 0.0 0.0 xyz
   end
   begin
      id 3
      name RightUpLeg_dum
      direction -1.000000 0.000000 0.000000
      length 3.697939
      axis 0.0 0.0 0.0 xyz
   end
   begin
      id 4
      name Spine
      direction 0.000000 1.000000 0.000000
      length 0.000000
      axis 0.0 0.0 0.0 xyz
      dof rx ry rz
   end
   begin
      id 5
      name Spine_dum1
      direction 0.000000 1.000000 0.000000
      length 16.447146
      axis 0.0 0.0 0.0 xyz
   end
   begin
      id 6
      name Spine_dum2
      direction 0.000000 1.000000 0.000000
      length 10.900383
      axis 0.0 0.0 0.0 xyz
   end
   begin
      id 7
      name Spine_dum3
      direction 0.000000 1.000000 0.000000
      length 10.900383
      axis 0.0 0.0 0.0 xyz
   end
   begin
      id 8
      name Head
      direction 0.000000 1.000000 0.000000
      length 4.527550
      axis 0.0 0.0 0.0 xyz
      dof rx ry rz
   end
   begin
      id 9
      name LeftShoulder
      direction 1.000000 0.000000 0.000000
      length 8.219464
      axis 0.0 0.0 -90.0 xyz
      dof rx ry rz
   end
   begin
      id 10
      name LeftArm
      direction 1.000000 0.000000 0.000000
      length 11.094937
      axis 0.0 0.0 -90.0 xyz
      dof rx ry rz
   end
   begin
      id 11
      name LeftForeArm
      direction 1.000000 0.000000 0.000000
      length 9.103875
      axis 0.0 0.0 -90.0 xyz
      dof ry rz rx
   end
   begin
      id 12
      name LeftHand
      direction 0.000000 0.000000 0.000000
      length 0.000000
      axis 0.0 0.0 -90.0 xyz
      dof rx ry rz
   end
   begin
      id 13
      name LeftHand_dum1
      direction 0.000000 0.000000 0.000000
      length 0.000000
      axis 0.0 0.0 -90.0 xyz
   end
   begin
      id 14
      name LeftHand_dum2
      direction 1.000000 0.000000 0.000000
      length 3.937000
      axis 0.0 0.0 -90.0 xyz
   end
   begin
      id 15
      name LeftHandThumb1
      direction 0.000000 0.000000 1.000000
      length 3.937000
      axis 0.0 0.0 -90.0 xyz
      dof rx rz ry
   end
   begin
      id 16
      name RightShoulder
      direction -1.000000 0.000000 0.000000
      length 8.219464
      axis 0.0 0.0 90.0 xyz
      dof rx ry rz
   end
   begin
      id 17
      name RightArm
      direction -1.000000 0.000000 0.000000
      length 11.094937
      axis 0.0 0.0 90.0 xyz
      dof rx ry rz
   end
   begin
      id 18
      name RightForeArm
      direction -1.000000 0.000000 0.000000
      length 9.103875
      axis 0.0 0.0 90.0 xyz
      dof ry rz rx
   end
   begin
      id 19
      name RightHand
      direction 0.000000 0.000000 0.000000
      length 0.000000
      axis 0.0 0.0 90.0 xyz
      dof rx ry rz
   end
   begin
      id 20
      name RightHand_dum1
      direction 0.000000 0.000000 0.000000
      length 0.000000
      axis 0.0 0.0 90.0 xyz
   end
   begin
      id 21
      name RightHand_dum2
      direction -1.000000 0.000000 0.000000
      length 3.937000
      axis 0.0 0.0 90.0 xyz
   end
   begin
      id 22
      name RightHandThumb1
      direction 0.000000 0.000000 1.000000
      length 3.937000
      axis 0.0 0.0 90.0 xyz
      dof rx rz ry
   end
   begin
      id 23
      name LeftUpLeg
      direction 0.000000 -1.000000 0.000000
      length 16.181467
      axis 0.0 0.0 0.0 xyz
      dof rx ry rz
   end
   begin
      id 24
      name LeftLeg
      direction 0.000000 -1.000000 0.000000
      length 16.501392
      axis 0.0 0.0 0.0 xyz
      dof rx ry rz
   end
   begin
      id 25
      name LeftFoot
      direction 0.000000 -0.258819 0.965926
      length 6.408245
      axis 15.0 0.0 0.0 xyz
      dof rx ry rz
   end
   begin
      id 26
      name LeftToeBase
      direction 0.000000 0.000000 1.000000
      length 2.952750
      axis 0.0 0.0 0.0 xyz
      dof rx ry rz
   end
   begin
      id 27
      name RightUpLeg
      direction 0.000000 -1.000000 0.000000
      length 16.181467
      axis 0.0 0.0 0.0 xyz
      dof rx ry rz
   end
   begin
      id 28
      name RightLeg
      direction 0.000000 -1.000000 0.000000
      length 16.501392
      axis 0.0 0.0 0.0 xyz
      dof rx ry rz
   end
   begin
      id 29
      name RightFoot
      direction 0.000000 -0.258819 0.965926
      length 6.408245
      axis 15.0 0.0 0.0 xyz
      dof rx ry rz
   end
   begin
      id 30
      name RightToeBase
      direction 0.000000 0.000000 1.000000
      length 2.952750
      axis 0.0 0.0 0.0 xyz
      dof rx ry rz
   end
:hierarchy
   begin
      root Spine_dum LeftUpLeg_dum RightUpLeg_dum
      Spine_dum Spine
      LeftUpLeg_dum LeftUpLeg
      RightUpLeg_dum RightUpLeg
      Spine Spine_dum1 Spine_dum2 Spine_dum3
      Spine_dum1 Head
      Spine_dum2 LeftShoulder
      Spine_dum3 RightShoulder
      LeftShoulder LeftArm
      LeftArm LeftForeArm
      LeftForeArm LeftHand
      LeftHand LeftHand_dum1 LeftHand_dum2
      LeftHand_dum1 LeftHandThumb1
      RightShoulder RightArm
      RightArm RightForeArm
      RightForeArm RightHand
      RightHand RightHand_dum1 RightHand_dum2
      RightHand_dum1 RightHandThumb1
      LeftUpLeg LeftLeg
      LeftLeg LeftFoot
      LeftFoot LeftToeBase
      RightUpLeg RightLeg
      RightLeg RightFoot
      RightFoot RightToeBase
   end

# File created by Blade
# Date/Time:  Wed Apr 08 17:39:35 2015
# Frame Rate: 120.000 fps
#------------------------------------------------------
:FULLY-SPECIFIED
:DEGREES
523
root 7.154217 35.942103 3.086182 14.373061 -49.674390 -356.185225
Spine -21.115598 -5.368249 -3.892219
Head 43.726246 19.523124 15.409066
LeftShoulder -10.660649 23.139952 12.274865
LeftArm 16.963921 12.774493 -78.104072
LeftForeArm 19.005040 -0.000000 23.762726
LeftHand -12.366796 -0.000000 -12.297719
LeftHandThumb1 -26.253704 0.000000 33.147579
RightShoulder -39.774368 -51.065255 19.784811
RightArm 52.355340 -14.750075 48.838402
RightForeArm 0.516208 -0.000000 18.566540
RightHand -8.607904 -0.000000 34.718694
RightHandThumb1 -24.326973 -0.000000 -32.862282
LeftUpLeg -21.063515 -2.438267 -7.989946
LeftLeg 17.317729 -0.000000 -0.000000
LeftFoot -14.420936 1.498857 -4.266531
LeftToeBase 10.149263 -0.000000 -0.000000
RightUpLeg -79.840387 2.018046 11.692872
RightLeg 81.306551 -0.000000 -0.000000
RightFoot 23.519686 -20.708304 18.695828
RightToeBase 16.648079 -0.000000 -0.000000
524
root 7.150819 35.944242 3.077741 14.426846 -49.656743 -356.248447
Spine -21.110123 -5.384034 -3.861109
Head 43.722293 19.479032 15.420087
LeftShoulder -10.641820 23.170373 12.270004
LeftArm 16.975420 12.799238 -78.044720
LeftForeArm 18.949605 -0.000000 23.756699
LeftHand -12.381453 0.000000 -12.300566
LeftHandThumb1 -26.253704 0.000000 33.147579
RightShoulder -39.771590 -51.071191 19.784671
RightArm 52.434645 -14.706243 48.865263
RightForeArm 0.542016 -0.000000 18.583609
RightHand -8.717261 -0.000000 34.762125
RightHandThumb1 -24.326973 -0.000000 -32.862282
LeftUpLeg -21.108637 -2.521542 -7.910515
LeftLeg 17.382956 -0.000000 -0.000000
LeftFoot -14.302360 1.492633 -4.363458
LeftToeBase 9.606128 -0.000000 -0.000000
RightUpLeg -79.818931 2.276421 11.004877
RightLeg 81.450307 -0.000000 -0.000000
RightFoot 21.230983 -21.155147 17.754389
RightToeBase 14.433226 -0.000000 -0.000000
525
root 7.147922 35.946669 3.070399 14.470460 -49.647349 -356.307607
Spine -21.099061 -5.402889 -3.823860
Head 43.729943 19.448171 15.426038
LeftShoulder -10.632973 23.202640 12.254505
LeftArm 16.995511 12.786833 -78.006689
LeftForeArm 18.931584 0.000000 23.712574
LeftHand -12.344564 0.000000 -12.268258
LeftHandThumb1 -26.253704 0.000000 33.147579
RightShoulder -39.757942 -51.070209 19.770930
RightArm 52.526409 -14.660762 48.899262
RightForeArm 0.553034 0.000000 18.557088
RightHand -8.751263 -0.000000 34.508149
RightHandThumb1 -24.326973 -0.000000 -32.862282
LeftUpLeg -21.141873 -2.563336 -7.857117
LeftLeg 17.437573 -0.000000 -0.000000
LeftFoot -14.326118 1.628516 -4.082469
LeftToeBase 9.624834 -0.000000 -0.000000
RightUpLeg -79.781913 2.544823 10.313055
RightLeg 81.545131 -0.000000 -0.000000
RightFoot 18.938621 -21.780753 16.466848
RightToeBase 12.913687 -0.000000 -0.000000
526
root 7.145249 35.949244 3.063295 14.500438 -49.599320 -356.351513
Spine -21.088156 -5.494304 -3.776396
Head 43.766279 19.440018 15.439678
LeftShoulder -10.651228 23.239314 12.228792
LeftArm 17.003278 12.790754 -77.962797
LeftForeArm 18.890849 -0.000000 23.677693
LeftHand -12.266703 -0.000000 -12.298715
LeftHandThumb1 -26.253704 0.000000 33.147579
RightShoulder -39.700080 -51.080955 19.706976
RightArm 52.616584 -14.634987 48.928545
RightForeArm 0.512476 -0.000000 18.568773
RightHand -8.905644 0.000000 34.580956
RightHandThumb1 -24.326973 -0.000000 -32.862282
LeftUpLeg -21.159233 -2.658667 -7.799681
LeftLeg 17.466833 -0.000000 -0.000000
LeftFoot -14.263777 1.717198 -3.967775
LeftToeBase 9.362998 -0.000000 -0.000000
RightUpLeg -79.733092 2.780443 9.611873
RightLeg 81.570092 -0.000000 -0.000000
RightFoot 16.549378 -22.548404 15.358049
RightToeBase 12.391075 -0.000000 -0.000000
527
root 7.143575 35.952032 3.056404 14.534306 -49.557570 -356.395150
Spine -21.085076 -5.547761 -3.734070
Head 43.808485 19.402583 15.434278
LeftShoulder -10.630696 23.266689 12.212086
LeftArm 17.009721 12.784779 -77.929165
LeftForeArm 18.880151 -0.000000 23.634963
LeftHand -12.265640 0.000000 -12.237760
LeftHandThumb1 -26.253704 0.000000 33.147579
RightShoulder -39.662529 -51.068157 19.644067
RightArm 52.668254 -14.604347 49.014409
RightForeArm 0.508095 0.000000 18.608708
RightHand -9.013158 -0.000000 34.250605
RightHandThumb1 -24.326973 -0.000000 -32.862282
LeftUpLeg -21.170817 -2.736861 -7.751339
LeftLeg 17.480991 -0.000000 -0.000000
LeftFoot -14.201131 1.802003 -3.822191
LeftToeBase 9.148893 -0.000000 -0.000000
RightUpLeg -79.684447 3.022017 8.882579
RightLeg 81.539878 -0.000000 -0.000000
RightFoot 14.338249 -23.496129 14.345145
RightToeBase 10.590885 -0.000000 -0.000000
528
root 7.141383 35.954350 3.049804 14.568906 -49.509481 -356.440045
Spine -21.083145 -5.613265 -3.689886
Head 43.856772 19.367467 15.436750
LeftShoulder -10.619074 23.256257 12.205735
LeftArm 16.978278 12.773273 -77.914588
LeftForeArm 18.914419 -0.000000 23.592443
LeftHand -12.311860 -0.000000 -12.196410
LeftHandThumb1 -26.253704 0.000000 33.147579
RightShoulder -39.625079 -51.047046 19.581344
RightArm 52.712614 -14.596116 49.071605
RightForeArm 0.515357 -0.000000 18.650286
RightHand -8.998274 -0.000000 34.008592
RightHandThumb1 -24.326973 -0.000000 -32.862282
LeftUpLeg -21.163854 -2.822015 -7.698908
LeftLeg 17.460093 -0.000000 -0.000000
LeftFoot -14.110560 1.874845 -3.652344
LeftToeBase 9.081726 -0.000000 -0.000000
RightUpLeg -79.635485 3.264277 8.091943
RightLeg 81.451990 -0.000000 -0.000000
RightFoot 12.131083 -24.464762 13.669525
RightToeBase 9.527419 -0.000000 -0.000000
529
root 7.137997 35.957019 3.041527 14.614325 -49.458726 -356.496085
Spine -21.087726 -5.661127 -3.647728
Head 43.904410 19.294765 15.419999
LeftShoulder -10.598179 23.263010 12.195639
LeftArm 16.979323 12.755955 -77.887941
LeftForeArm 18.966953 -0.000000 23.529734
LeftHand -12.302997 -0.000000 -12.120608
LeftHandThumb1 -26.253704 0.000000 33.147579
RightShoulder -39.618039 -51.021611 19.531701
RightArm 52.744731 -14.598248 49.160480
RightForeArm 0.521219 -0.000000 18.692072
RightHand -9.011812 -0.000000 33.842601
RightHandThumb1 -24.326973 -0.000000 -32.862282
LeftUpLeg -21.156075 -2.887321 -7.635372
LeftLeg 17.432840 -0.000000 -0.000000
LeftFoot -14.059143 1.914973 -3.542614
LeftToeBase 8.937614 -0.000000 -0.000000
RightUpLeg -79.597441 3.517104 7.247762
RightLeg 81.328852 -0.000000 -0.000000
RightFoot 10.079437 -25.448493 13.071706
RightToeBase 8.578778 -0.000000 -0.000000
530
root 7.135997 35.959825 3.034183 14.653061 -49.390676 -356.539720
Spine -21.092259 -5.730531 -3.602329
Head 43.955249 19.236098 15.399150
LeftShoulder -10.589957 23.251987 12.170397
LeftArm 16.963668 12.769138 -77.844588
LeftForeArm 18.981748 0.000000 23.491093
LeftHand -12.339941 0.000000 -12.102775
LeftHandThumb1 -26.253704 0.000000 33.147579
RightShoulder -39.600629 -50.989906 19.474797
RightArm 52.761972 -14.597833 49.235094
RightForeArm 0.661335 0.000000 18.777251
RightHand -9.076959 0.000000 33.545895
RightHandThumb1 -24.326973 -0.000000 -32.862282
LeftUpLeg -21.152665 -2.956336 -7.580899
LeftLeg 17.404797 -0.000000 -0.000000
LeftFoot -13.989420 1.950632 -3.438414
LeftToeBase 8.581042 -0.000000 -0.000000
RightUpLeg -79.564471 3.754176 6.345843
RightLeg 81.153108 -0.000000 -0.000000
RightFoot 8.276442 -26.156150 12.312685
RightToeBase 7.576631 -0.000000 -0.000000
531
root 7.133474 35.961749 3.027693 14.664298 -49.287076 -356.567693
Spine -21.074445 -5.834170 -3.559555
Head 43.994414 19.175503 15.359632
LeftShoulder -10.587286 23.235229 12.142551
LeftArm 16.957577 12.710023 -77.832305
LeftForeArm 18.986837 0.000000 23.424992
LeftHand -12.362670 -0.000000 -12.060395
LeftHandThumb1 -26.253704 0.000000 33.147579
RightShoulder -39.568789 -50.965036 19.399002
RightArm 52.758839 -14.632454 49.309117
RightForeArm 0.691184 -0.000000 18.905489
RightHand -9.034716 -0.000000 32.892056
RightHandThumb1 -24.326973 -0.000000 -32.862282
LeftUpLeg -21.130738 -3.038311 -7.536273
LeftLeg 17.376252 -0.000000 -0.000000
LeftFoot -13.916045 1.982632 -3.293336
LeftToeBase 8.330896 -0.000000 -0.000000
RightUpLeg -79.524670 3.939580 5.426760
RightLeg 80.972454 -0.000000 -0.000000
RightFoot 6.644882 -26.690736 11.748460
RightToeBase 5.776737 -0.000000 -0.000000
532
root 7.132100 35.964596 3.020986 14.689196 -49.189960 -356.601175
Spine -21.065585 -5.904559 -3.522322
Head 44.029135 19.080805 15.309827
LeftShoulder -10.559567 23.214742 12.124076
LeftArm 16.961875 12.654988 -77.820871
LeftForeArm 19.013312 -0.000000 23.344424
LeftHand -12.352386 -0.000000 -12.037157
LeftHandThumb1 -26.253704 0.000000 33.147579
RightShoulder -39.585462 -50.947592 19.372075
RightArm 52.752290 -14.646257 49.388892
RightForeArm 0.752880 -0.000000 19.032048
RightHand -9.017733 -0.000000 32.097141
RightHandThumb1 -24.326973 -0.000000 -32.862282
LeftUpLeg -21.128596 -3.113254 -7.486748
LeftLeg 17.365423 -0.000000 -0.000000
LeftFoot -13.856325 1.991240 -3.201233
LeftToeBase 8.131954 -0.000000 -0.000000
RightUpLeg -79.491350 4.127170 4.502683
RightLeg 80.748810 -0.000000 -0.000000
RightFoot 5.075734 -26.952691 11.329975
RightToeBase 3.211070 -0.000000 -0.000000
